<mxfile host="65bd71144e">
    <diagram id="_0wab0v61emHtb4qyNVb" name="Page-1">
        <mxGraphModel dx="941" dy="809" grid="1" gridSize="10" guides="1" tooltips="1" connect="1" arrows="1" fold="1" page="1" pageScale="1" pageWidth="850" pageHeight="1100" math="0" shadow="0">
            <root>
                <mxCell id="0"/>
                <mxCell id="1" parent="0"/>
                <mxCell id="56" value="" style="rounded=0;whiteSpace=wrap;html=1;" parent="1" vertex="1">
                    <mxGeometry x="73" y="740" width="120" height="250" as="geometry"/>
                </mxCell>
                <mxCell id="16" value="SALESFORCE" style="rounded=0;whiteSpace=wrap;html=1;" parent="1" vertex="1">
                    <mxGeometry x="63" y="140" width="140" height="370" as="geometry"/>
                </mxCell>
                <mxCell id="2" value="Salesforce&lt;br&gt;&lt;b&gt;Apex&lt;/b&gt; Callout to AWS" style="whiteSpace=wrap;html=1;aspect=fixed;" parent="1" vertex="1">
                    <mxGeometry x="93" y="180" width="80" height="80" as="geometry"/>
                </mxCell>
                <mxCell id="3" value="" style="endArrow=classic;html=1;exitX=1;exitY=0.5;exitDx=0;exitDy=0;" parent="1" source="2" edge="1">
                    <mxGeometry width="50" height="50" relative="1" as="geometry">
                        <mxPoint x="483" y="420" as="sourcePoint"/>
                        <mxPoint x="253" y="280" as="targetPoint"/>
                    </mxGeometry>
                </mxCell>
                <mxCell id="6" value="" style="edgeStyle=none;html=1;" parent="1" source="4" target="5" edge="1">
                    <mxGeometry relative="1" as="geometry"/>
                </mxCell>
                <mxCell id="4" value="AWS S3 Inbound Bucket" style="shape=cylinder3;whiteSpace=wrap;html=1;boundedLbl=1;backgroundOutline=1;size=15;" parent="1" vertex="1">
                    <mxGeometry x="500" y="256" width="60" height="80" as="geometry"/>
                </mxCell>
                <mxCell id="8" value="" style="html=1;startArrow=block;startFill=1;" parent="1" source="5" target="7" edge="1">
                    <mxGeometry relative="1" as="geometry"/>
                </mxCell>
                <mxCell id="5" value="Processing Lambda" style="rhombus;whiteSpace=wrap;html=1;" parent="1" vertex="1">
                    <mxGeometry x="630" y="256" width="80" height="80" as="geometry"/>
                </mxCell>
                <mxCell id="7" value="AWS Textract" style="whiteSpace=wrap;html=1;" parent="1" vertex="1">
                    <mxGeometry x="770" y="266" width="120" height="60" as="geometry"/>
                </mxCell>
                <mxCell id="34" style="edgeStyle=none;html=1;exitX=0.5;exitY=0;exitDx=0;exitDy=0;" parent="1" source="13" edge="1">
                    <mxGeometry relative="1" as="geometry">
                        <mxPoint x="133" y="260" as="targetPoint"/>
                    </mxGeometry>
                </mxCell>
                <mxCell id="13" value="LWC Input form" style="whiteSpace=wrap;html=1;aspect=fixed;" parent="1" vertex="1">
                    <mxGeometry x="93" y="310" width="80" height="80" as="geometry"/>
                </mxCell>
                <mxCell id="17" value="CHAT GPT" style="ellipse;whiteSpace=wrap;html=1;" parent="1" vertex="1">
                    <mxGeometry x="800" y="430" width="80" height="80" as="geometry"/>
                </mxCell>
                <mxCell id="24" value="Resume Object" style="shape=cylinder3;whiteSpace=wrap;html=1;boundedLbl=1;backgroundOutline=1;size=15;" parent="1" vertex="1">
                    <mxGeometry x="103" y="410" width="60" height="80" as="geometry"/>
                </mxCell>
                <mxCell id="25" value="Salesforce" style="text;html=1;align=center;verticalAlign=middle;resizable=0;points=[];autosize=1;strokeColor=none;fillColor=none;" parent="1" vertex="1">
                    <mxGeometry x="93" y="520" width="80" height="30" as="geometry"/>
                </mxCell>
                <mxCell id="27" value="Document upload &lt;br&gt;triggers lambda" style="text;html=1;align=center;verticalAlign=middle;resizable=0;points=[];autosize=1;strokeColor=none;fillColor=none;" parent="1" vertex="1">
                    <mxGeometry x="547" y="220" width="120" height="40" as="geometry"/>
                </mxCell>
                <mxCell id="28" value="Grabs doc and &lt;br&gt;sends to Textract" style="text;html=1;align=center;verticalAlign=middle;resizable=0;points=[];autosize=1;strokeColor=none;fillColor=none;" parent="1" vertex="1">
                    <mxGeometry x="680" y="226" width="110" height="40" as="geometry"/>
                </mxCell>
                <mxCell id="31" value="" style="edgeStyle=none;html=1;" parent="1" source="29" target="30" edge="1">
                    <mxGeometry relative="1" as="geometry"/>
                </mxCell>
                <mxCell id="29" value="Salesforce&lt;br&gt;&lt;b&gt;LWC&lt;/b&gt; Callout to AWS" style="whiteSpace=wrap;html=1;aspect=fixed;" parent="1" vertex="1">
                    <mxGeometry x="93" y="760" width="80" height="80" as="geometry"/>
                </mxCell>
                <mxCell id="59" style="edgeStyle=none;html=1;exitX=0.5;exitY=1;exitDx=0;exitDy=0;entryX=1;entryY=0.5;entryDx=0;entryDy=0;entryPerimeter=0;startArrow=block;startFill=1;" parent="1" source="30" target="55" edge="1">
                    <mxGeometry relative="1" as="geometry">
                        <Array as="points">
                            <mxPoint x="380" y="930"/>
                        </Array>
                    </mxGeometry>
                </mxCell>
                <mxCell id="30" value="Chat GPT" style="ellipse;whiteSpace=wrap;html=1;" parent="1" vertex="1">
                    <mxGeometry x="340" y="760" width="80" height="80" as="geometry"/>
                </mxCell>
                <mxCell id="32" value="Send job &lt;br&gt;description prompt" style="text;html=1;align=center;verticalAlign=middle;resizable=0;points=[];autosize=1;strokeColor=none;fillColor=none;" parent="1" vertex="1">
                    <mxGeometry x="198" y="760" width="120" height="40" as="geometry"/>
                </mxCell>
                <mxCell id="35" value="RESUME ANALYSIS FEATURE" style="text;html=1;align=center;verticalAlign=middle;resizable=0;points=[];autosize=1;strokeColor=none;fillColor=none;" parent="1" vertex="1">
                    <mxGeometry x="35" y="95" width="190" height="30" as="geometry"/>
                </mxCell>
                <mxCell id="36" value="JOB DESCRIPTION GENERATOR FEATURE" style="text;html=1;align=center;verticalAlign=middle;resizable=0;points=[];autosize=1;strokeColor=none;fillColor=none;" parent="1" vertex="1">
                    <mxGeometry x="35" y="715" width="270" height="30" as="geometry"/>
                </mxCell>
                <mxCell id="37" value="Inbound Lambda" style="rhombus;whiteSpace=wrap;html=1;" parent="1" vertex="1">
                    <mxGeometry x="370" y="260" width="80" height="80" as="geometry"/>
                </mxCell>
                <mxCell id="44" value="" style="edgeStyle=none;html=1;" parent="1" edge="1">
                    <mxGeometry relative="1" as="geometry">
                        <mxPoint x="450" y="300" as="sourcePoint"/>
                        <mxPoint x="500" y="299.5" as="targetPoint"/>
                    </mxGeometry>
                </mxCell>
                <mxCell id="47" value="AWS API Gateway" style="whiteSpace=wrap;html=1;" parent="1" vertex="1">
                    <mxGeometry x="250" y="251" width="80" height="110" as="geometry"/>
                </mxCell>
                <mxCell id="48" value="" style="edgeStyle=none;html=1;" parent="1" edge="1">
                    <mxGeometry relative="1" as="geometry">
                        <mxPoint x="330" y="300" as="sourcePoint"/>
                        <mxPoint x="370" y="299.5" as="targetPoint"/>
                    </mxGeometry>
                </mxCell>
                <mxCell id="49" value="" style="endArrow=classic;startArrow=classic;html=1;exitX=0;exitY=0.5;exitDx=0;exitDy=0;entryX=1;entryY=1;entryDx=0;entryDy=0;" parent="1" source="17" target="5" edge="1">
                    <mxGeometry width="50" height="50" relative="1" as="geometry">
                        <mxPoint x="680" y="510" as="sourcePoint"/>
                        <mxPoint x="680" y="330" as="targetPoint"/>
                        <Array as="points">
                            <mxPoint x="690" y="470"/>
                        </Array>
                    </mxGeometry>
                </mxCell>
                <mxCell id="50" value="1" style="text;html=1;align=center;verticalAlign=middle;resizable=0;points=[];autosize=1;strokeColor=none;fillColor=none;" parent="1" vertex="1">
                    <mxGeometry x="724" y="272" width="30" height="30" as="geometry"/>
                </mxCell>
                <mxCell id="51" value="2" style="text;html=1;align=center;verticalAlign=middle;resizable=0;points=[];autosize=1;strokeColor=none;fillColor=none;" parent="1" vertex="1">
                    <mxGeometry x="685" y="375" width="30" height="30" as="geometry"/>
                </mxCell>
                <mxCell id="52" value="" style="endArrow=classic;startArrow=classic;html=1;exitX=1;exitY=0.5;exitDx=0;exitDy=0;exitPerimeter=0;" parent="1" source="24" edge="1">
                    <mxGeometry width="50" height="50" relative="1" as="geometry">
                        <mxPoint x="617" y="440" as="sourcePoint"/>
                        <mxPoint x="670" y="340" as="targetPoint"/>
                        <Array as="points">
                            <mxPoint x="670" y="450"/>
                        </Array>
                    </mxGeometry>
                </mxCell>
                <mxCell id="53" value="3" style="text;html=1;align=center;verticalAlign=middle;resizable=0;points=[];autosize=1;strokeColor=none;fillColor=none;" parent="1" vertex="1">
                    <mxGeometry x="640" y="375" width="30" height="30" as="geometry"/>
                </mxCell>
                <mxCell id="54" value="Return ChatGPT response to Salesforce" style="text;html=1;align=center;verticalAlign=middle;resizable=0;points=[];autosize=1;strokeColor=none;fillColor=none;" parent="1" vertex="1">
                    <mxGeometry x="270" y="425" width="240" height="30" as="geometry"/>
                </mxCell>
                <mxCell id="55" value="Job Description Object" style="shape=cylinder3;whiteSpace=wrap;html=1;boundedLbl=1;backgroundOutline=1;size=15;" parent="1" vertex="1">
                    <mxGeometry x="103" y="890" width="60" height="80" as="geometry"/>
                </mxCell>
                <mxCell id="57" value="Salesforce" style="text;html=1;align=center;verticalAlign=middle;resizable=0;points=[];autosize=1;strokeColor=none;fillColor=none;" parent="1" vertex="1">
                    <mxGeometry x="93" y="985" width="80" height="30" as="geometry"/>
                </mxCell>
                <mxCell id="60" value="Send ChatGPT response to object" style="text;html=1;align=center;verticalAlign=middle;resizable=0;points=[];autosize=1;strokeColor=none;fillColor=none;" parent="1" vertex="1">
                    <mxGeometry x="185" y="930" width="210" height="30" as="geometry"/>
                </mxCell>
            </root>
        </mxGraphModel>
    </diagram>
</mxfile>